<svg width="552" height="552" viewBox="0 0 552 552" fill="none" xmlns="http://www.w3.org/2000/svg">
<rect width="551.13" height="551.13" rx="275.565" fill="#063941"/>
<path d="M434.525 220.805C434.525 219.185 435.064 217.836 436.141 216.756C437.218 215.676 438.565 215.136 440.181 215.136H463.88C465.316 215.136 466.573 215.676 467.65 216.756C468.907 217.836 469.536 219.185 469.536 220.805V341.196C469.536 348.575 468.099 355.413 465.227 361.711C462.534 368.19 458.853 373.769 454.185 378.448C449.517 383.126 443.951 386.816 437.488 389.515C431.024 392.394 424.202 393.834 417.02 393.834C415.943 393.834 414.866 393.834 413.788 393.834C412.891 393.834 411.903 393.744 410.826 393.564C407.594 393.204 405.979 391.314 405.979 387.895V365.491C405.979 364.051 406.427 362.791 407.325 361.711C408.223 360.632 409.39 360.002 410.826 359.822C417.649 358.562 423.304 355.233 427.793 349.834C432.281 344.616 434.525 338.497 434.525 331.479V220.805ZM434.525 181.664C434.525 176.806 436.231 172.667 439.642 169.247C443.053 165.648 447.183 163.849 452.03 163.849C456.698 163.849 460.738 165.648 464.149 169.247C467.74 172.667 469.536 176.806 469.536 181.664C469.536 186.343 467.74 190.392 464.149 193.812C460.738 197.231 456.698 198.94 452.03 198.94C447.183 198.94 443.053 197.231 439.642 193.812C436.231 190.392 434.525 186.343 434.525 181.664Z" fill="white"/>
<path d="M365.615 181.89C365.615 177.032 367.231 172.893 370.462 169.473C373.874 165.874 378.003 164.075 382.851 164.075C387.698 164.075 391.828 165.874 395.239 169.473C398.65 172.893 400.356 177.032 400.356 181.89C400.356 186.569 398.65 190.618 395.239 194.038C391.828 197.457 387.698 199.166 382.851 199.166C378.003 199.166 373.874 197.457 370.462 194.038C367.231 190.618 365.615 186.569 365.615 181.89ZM400.356 337.104C400.356 338.723 399.817 340.073 398.74 341.153C397.663 342.232 396.316 342.772 394.7 342.772H371.27C369.654 342.772 368.308 342.232 367.231 341.153C366.153 340.073 365.615 338.723 365.615 337.104V221.031C365.615 219.412 366.153 218.062 367.231 216.982C368.308 215.902 369.654 215.363 371.27 215.363H394.7C396.316 215.363 397.663 215.902 398.74 216.982C399.817 218.062 400.356 219.412 400.356 221.031V337.104Z" fill="white"/>
<path d="M166.044 279.067C166.044 283.026 166.763 286.806 168.199 290.405C169.815 293.824 171.88 296.793 174.393 299.313C177.086 301.832 180.138 303.901 183.55 305.521C186.961 306.961 190.641 307.681 194.591 307.681C198.541 307.681 202.222 306.961 205.633 305.521C209.224 303.901 212.276 301.832 214.79 299.313C217.483 296.793 219.547 293.824 220.984 290.405C222.6 286.806 223.407 283.026 223.407 279.067C223.407 275.108 222.6 271.419 220.984 268C219.547 264.401 217.483 261.342 214.79 258.822C212.276 256.303 209.224 254.323 205.633 252.884C202.222 251.264 198.541 250.454 194.591 250.454C190.641 250.454 186.961 251.264 183.55 252.884C180.138 254.323 177.086 256.303 174.393 258.822C171.88 261.342 169.815 264.401 168.199 268C166.763 271.419 166.044 275.108 166.044 279.067ZM160.389 164.075C162.005 164.075 163.351 164.705 164.429 165.964C165.506 167.044 166.044 168.304 166.044 169.743V217.522C166.044 218.602 166.314 219.502 166.852 220.221C167.571 220.941 168.378 221.121 169.276 220.761C177.535 217.162 186.063 215.363 194.861 215.363C203.658 215.363 211.917 217.072 219.637 220.491C227.357 223.731 234.09 228.229 239.835 233.988C245.581 239.747 250.069 246.495 253.301 254.233C256.712 261.971 258.418 270.159 258.418 278.797C258.418 287.615 256.712 295.893 253.301 303.632C250.069 311.37 245.581 318.208 239.835 324.147C234.09 329.905 227.357 334.494 219.637 337.913C211.917 341.153 203.658 342.772 194.861 342.772C186.063 342.772 177.804 341.153 170.084 337.913C162.364 334.494 155.541 329.905 149.617 324.147C143.871 318.208 139.293 311.37 135.882 303.632C132.65 295.893 131.034 287.615 131.034 278.797V169.743C131.034 168.304 131.573 167.044 132.65 165.964C133.907 164.705 135.253 164.075 136.69 164.075H160.389Z" fill="white"/>
<path d="M315.159 337.181C315.159 338.801 314.62 340.15 313.543 341.23C312.466 342.31 311.119 342.85 309.503 342.85H285.804C284.188 342.85 282.842 342.31 281.764 341.23C280.687 340.15 280.148 338.801 280.148 337.181V268.077C280.148 260.879 281.495 254.041 284.188 247.562C287.061 241.084 290.831 235.505 295.499 230.826C300.167 226.147 305.643 222.458 311.927 219.759C318.39 216.88 325.303 215.44 332.664 215.44C333.562 215.44 334.549 215.44 335.626 215.44C336.703 215.44 337.781 215.53 338.858 215.71C340.294 215.89 341.461 216.52 342.359 217.599C343.257 218.679 343.706 219.939 343.706 221.379V243.783C343.706 245.223 343.257 246.483 342.359 247.562C341.461 248.642 340.294 249.272 338.858 249.452C332.035 250.712 326.38 254.041 321.891 259.439C317.403 264.658 315.159 270.777 315.159 277.795V337.181Z" fill="white"/>
<ellipse cx="89.7042" cy="221.071" rx="15.2281" ry="15.2281" fill="#F9AB10"/>
<ellipse cx="89.7042" cy="286.335" rx="15.2281" ry="15.2281" fill="#F9AB10"/>
</svg>
